<svg width="207" height="116" viewBox="0 0 207 116" fill="none" xmlns="http://www.w3.org/2000/svg">
<g style="mix-blend-mode:difference">
<path fill-rule="evenodd" clip-rule="evenodd" d="M129.818 61.4807C130.413 61.3624 130.999 61.2198 131.575 61.0538C130.984 61.1813 130.398 61.3237 129.818 61.4807Z" fill="white"/>
<path fill-rule="evenodd" clip-rule="evenodd" d="M78.1018 61.5351C77.359 61.3293 76.6063 61.1475 75.8447 60.9903C76.5814 61.2108 77.3345 61.3932 78.1018 61.5351Z" fill="white"/>
<path fill-rule="evenodd" clip-rule="evenodd" d="M78.1018 61.5351C77.359 61.3293 76.6063 61.1475 75.8447 60.9903C76.5814 61.2108 77.3345 61.3932 78.1018 61.5351Z" fill="white"/>
<path fill-rule="evenodd" clip-rule="evenodd" d="M129.818 61.4807C130.413 61.3624 130.999 61.2198 131.575 61.0538C130.984 61.1813 130.398 61.3237 129.818 61.4807ZM75.8447 60.9903C76.5814 61.2108 77.3345 61.3932 78.1018 61.5351C77.359 61.3293 76.6063 61.1475 75.8447 60.9903Z" fill="white"/>
<path fill-rule="evenodd" clip-rule="evenodd" d="M129.818 61.4807C130.413 61.3624 130.999 61.2198 131.575 61.0538C130.984 61.1813 130.398 61.3237 129.818 61.4807ZM75.8447 60.9903C76.5814 61.2108 77.3345 61.3932 78.1018 61.5351C77.359 61.3293 76.6063 61.1475 75.8447 60.9903Z" fill="white"/>
<path fill-rule="evenodd" clip-rule="evenodd" d="M129.818 61.4807C130.413 61.3624 130.999 61.2198 131.575 61.0538C130.984 61.1813 130.398 61.3237 129.818 61.4807ZM75.8447 60.9903C76.5814 61.2108 77.3345 61.3932 78.1018 61.5351C77.359 61.3293 76.6063 61.1475 75.8447 60.9903Z" fill="white"/>
<path fill-rule="evenodd" clip-rule="evenodd" d="M78.1018 61.5351C77.359 61.3293 76.6063 61.1475 75.8447 60.9903C76.5814 61.2108 77.3345 61.3932 78.1018 61.5351ZM129.818 61.4807C130.413 61.3624 130.999 61.2198 131.575 61.0538C130.984 61.1813 130.398 61.3237 129.818 61.4807Z" fill="white"/>
<path fill-rule="evenodd" clip-rule="evenodd" d="M78.1018 61.5351C77.359 61.3293 76.6063 61.1475 75.8447 60.9903C76.5814 61.2108 77.3345 61.3932 78.1018 61.5351ZM129.818 61.4807C130.413 61.3624 130.999 61.2198 131.575 61.0538C130.984 61.1813 130.398 61.3237 129.818 61.4807Z" fill="white"/>
<path fill-rule="evenodd" clip-rule="evenodd" d="M129.818 61.4807C130.413 61.3624 130.999 61.2198 131.575 61.0538C130.984 61.1813 130.398 61.3237 129.818 61.4807ZM78.1018 61.5351C77.359 61.3293 76.6063 61.1475 75.8447 60.9903C76.5814 61.2108 77.3345 61.3932 78.1018 61.5351Z" fill="white"/>
<path fill-rule="evenodd" clip-rule="evenodd" d="M129.818 61.4807C130.413 61.3624 130.999 61.2198 131.575 61.0538C130.984 61.1813 130.398 61.3237 129.818 61.4807ZM75.8447 60.9903C76.5814 61.2108 77.3345 61.3932 78.1018 61.5351C77.359 61.3293 76.6063 61.1475 75.8447 60.9903Z" fill="white"/>
<path fill-rule="evenodd" clip-rule="evenodd" d="M62.6335 49.859C64.2759 38.8923 68.7291 28.2693 75.9931 19.166C76.9421 17.9767 77.939 16.8133 78.984 15.6785C77.4501 17.1241 75.8456 18.4948 74.1763 19.7848C71.7556 21.6555 69.1986 23.3565 66.5228 24.8703C57.2311 30.127 46.5073 33.1253 35.0873 33.1253C31.2003 33.1253 27.3939 32.778 23.6973 32.1124C20.7846 31.5881 17.94 30.8662 15.1777 29.961C17.2913 36.5052 18.3393 43.3217 18.3217 50.136C18.3165 52.1349 18.2197 54.1336 18.0311 56.1252C17.9288 57.2063 17.7994 58.2854 17.643 59.3613C15.808 71.9828 10.2539 84.1627 0.980694 94.1109C7.0631 88.3757 13.9846 84.0549 21.3312 81.1486C26.9781 78.9146 32.8763 77.5163 38.8377 76.9538C47.6914 76.1182 56.6848 77.1259 65.2019 79.9769C72.1525 82.3035 78.786 85.8576 84.7678 90.6394C85.2513 91.0259 85.7305 91.4204 86.2054 91.8229C87.6028 93.0077 88.9619 94.2619 90.278 95.5856L90.3021 95.6099C94.5702 99.9071 98.111 104.658 100.924 109.709C102.067 111.76 103.089 113.861 103.992 116C104.856 113.952 105.83 111.94 106.913 109.973C109.75 104.824 113.339 99.9818 117.682 95.61L117.706 95.5858C119.022 94.262 120.381 93.0078 121.778 91.8229C122.045 91.5972 122.312 91.374 122.581 91.1533C128.727 86.1117 135.584 82.3864 142.781 79.9772C151.209 77.156 160.104 76.1397 168.868 76.9283C174.924 77.4732 180.917 78.88 186.652 81.1486C193.998 84.0545 200.918 88.3745 207 94.1085C197.728 84.161 192.175 71.9825 190.34 59.3625C190.173 58.2148 190.037 57.0635 189.932 55.9098C189.757 53.9891 189.666 52.062 189.661 50.1348C189.644 43.2848 190.703 36.4326 192.839 29.8569C190.06 30.7837 187.197 31.5246 184.264 32.0652C180.486 32.7615 176.593 33.1253 172.615 33.1253C161.134 33.1253 150.357 30.095 141.031 24.7864C138.435 23.3082 135.95 21.6533 133.595 19.838C132.449 18.9547 131.333 18.0334 130.249 17.076C130.886 17.8082 131.503 18.5513 132.101 19.3048C139.179 28.2261 143.568 38.5964 145.266 49.3141C145.621 51.5558 145.858 53.8126 145.978 56.0746C144.613 55.5813 143.26 55.04 141.924 54.4507C134.915 51.3602 128.343 46.9493 122.581 41.2182C122.539 41.1759 122.497 41.1336 122.454 41.0912C122.411 41.0477 122.367 41.0042 122.324 40.9605C119.652 38.2732 117.265 35.4079 115.162 32.4026C113.378 29.852 111.798 27.2005 110.424 24.4714C109.307 22.2544 108.326 19.9861 107.48 17.679C105.384 11.9614 104.12 6.00538 103.686 0C103.269 5.77855 102.082 11.5114 100.125 17.0301C99.2492 19.5012 98.2189 21.9294 97.0342 24.2995C95.6398 27.0892 94.0317 29.7985 92.2097 32.4026C90.1071 35.4079 87.7199 38.2732 85.0479 40.9605L84.9972 41.0114L84.9469 41.0619C84.8873 41.1216 84.8276 41.1812 84.7678 41.2406C79.0638 46.9087 72.5669 51.2839 65.639 54.3661C64.4441 54.8977 63.2363 55.3908 62.0176 55.8455C62.1307 53.8434 62.336 51.8455 62.6335 49.859ZM129.818 61.4807C130.413 61.3624 130.999 61.2198 131.575 61.0538C130.984 61.1813 130.398 61.3237 129.818 61.4807ZM78.1018 61.5351C79.3874 61.7729 80.7127 61.8972 82.0669 61.8972C82.9815 61.8972 83.8829 61.8405 84.7678 61.7305C90.5006 61.0174 95.55 58.0639 99.0087 53.7705C102.021 50.0316 103.826 45.2765 103.826 40.1C103.826 45.4547 105.755 50.3583 108.951 54.1528C112.335 58.1684 117.139 60.9418 122.581 61.6928C123.558 61.8276 124.556 61.8972 125.569 61.8972C127.023 61.8972 128.444 61.7539 129.818 61.4807C127.281 62.1673 124.857 63.1317 122.581 64.3394C115.647 68.0196 110.087 73.9586 106.876 81.1796C105.404 84.4894 104.426 88.0685 104.034 91.8229C103.946 92.6654 103.888 93.5167 103.861 94.3758C103.833 93.5167 103.775 92.6654 103.687 91.8229C103.306 88.1683 102.368 84.6798 100.961 81.4441C97.7127 73.9744 91.9602 67.8523 84.7678 64.145C82.6605 63.0587 80.4295 62.1799 78.1018 61.5351ZM75.8447 60.9903C76.5814 61.2108 77.3345 61.3932 78.1018 61.5351C77.359 61.3293 76.6063 61.1475 75.8447 60.9903Z" fill="white"/>
</g>
</svg>
